<svg xmlns="http://www.w3.org/2000/svg" viewBox="0 0 800 450" width="800" height="450">
  <defs>
    <linearGradient id="gl-bg" x1="0" y1="0" x2="1" y2="1">
      <stop offset="0%" stop-color="#240a2c"/>
      <stop offset="100%" stop-color="#06070d"/>
    </linearGradient>
  </defs>

  <rect width="800" height="450" fill="url(#gl-bg)"/>

  <!-- Scanlines -->
  <g stroke="#ff2ec3" stroke-width="1" opacity="0.08">
    <line x1="0" y1="20" x2="800" y2="20"/><line x1="0" y1="40" x2="800" y2="40"/><line x1="0" y1="60" x2="800" y2="60"/><line x1="0" y1="80" x2="800" y2="80"/><line x1="0" y1="100" x2="800" y2="100"/><line x1="0" y1="120" x2="800" y2="120"/><line x1="0" y1="140" x2="800" y2="140"/><line x1="0" y1="160" x2="800" y2="160"/><line x1="0" y1="180" x2="800" y2="180"/><line x1="0" y1="200" x2="800" y2="200"/><line x1="0" y1="220" x2="800" y2="220"/><line x1="0" y1="240" x2="800" y2="240"/><line x1="0" y1="260" x2="800" y2="260"/><line x1="0" y1="280" x2="800" y2="280"/><line x1="0" y1="300" x2="800" y2="300"/><line x1="0" y1="320" x2="800" y2="320"/><line x1="0" y1="340" x2="800" y2="340"/><line x1="0" y1="360" x2="800" y2="360"/><line x1="0" y1="380" x2="800" y2="380"/><line x1="0" y1="400" x2="800" y2="400"/><line x1="0" y1="420" x2="800" y2="420"/>
  </g>

  <!-- Glitch bars -->
  <rect x="0" y="120" width="800" height="20" fill="#ff2ec3" opacity="0.15"/>
  <rect x="0" y="180" width="800" height="6" fill="#00e5ff" opacity="0.35"/>
  <rect x="0" y="290" width="800" height="14" fill="#7c5cff" opacity="0.2"/>
  <rect x="0" y="360" width="800" height="3" fill="#c5ff00" opacity="0.5"/>

  <!-- Glitch text -->
  <g font-family="JetBrains Mono, Menlo, monospace" font-weight="700" font-size="84" letter-spacing="6">
    <text x="124" y="252" fill="#ff2ec3" opacity="0.85">EXPERIENCE</text>
    <text x="120" y="248" fill="#00e5ff" opacity="0.85">EXPERIENCE</text>
    <text x="122" y="250" fill="#e6e8ff">EXPERIENCE</text>
  </g>

  <!-- Subtitle ticker -->
  <g font-family="JetBrains Mono, Menlo, monospace" font-size="13" fill="#c5ff00" letter-spacing="3">
    <text x="124" y="290" opacity="0.85">// SIGNAL_LOST::REROUTE_OK::SYS_2087</text>
  </g>

  <!-- Corner brackets -->
  <g stroke="#00e5ff" stroke-width="2" fill="none">
    <path d="M 30 30 H 70 M 30 30 V 70"/>
    <path d="M 770 30 H 730 M 770 30 V 70"/>
    <path d="M 30 420 H 70 M 30 420 V 380"/>
    <path d="M 770 420 H 730 M 770 420 V 380"/>
  </g>
</svg>
