<svg xmlns="http://www.w3.org/2000/svg" viewBox="0 0 800 450" width="800" height="450">
  <defs>
    <linearGradient id="mx-bg" x1="0" y1="0" x2="0" y2="1">
      <stop offset="0%" stop-color="#02100a"/>
      <stop offset="100%" stop-color="#06070d"/>
    </linearGradient>
    <linearGradient id="mx-fade" x1="0" y1="0" x2="0" y2="1">
      <stop offset="0%" stop-color="#c5ff00" stop-opacity="0"/>
      <stop offset="60%" stop-color="#c5ff00" stop-opacity="0.55"/>
      <stop offset="100%" stop-color="#c5ff00"/>
    </linearGradient>
  </defs>

  <rect width="800" height="450" fill="url(#mx-bg)"/>

  <!-- Vertical streams (text columns) -->
  <g font-family="JetBrains Mono, Menlo, monospace" font-size="14" fill="#c5ff00">
    <g opacity="0.55"><text x="40" y="60">1</text><text x="40" y="80">0</text><text x="40" y="100">1</text><text x="40" y="120">1</text><text x="40" y="140">0</text><text x="40" y="160">A</text><text x="40" y="180">F</text><text x="40" y="200">3</text><text x="40" y="220">7</text></g>
    <g opacity="0.7"><text x="100" y="100">0</text><text x="100" y="120">1</text><text x="100" y="140">B</text><text x="100" y="160">2</text><text x="100" y="180">5</text><text x="100" y="200">E</text><text x="100" y="220">9</text><text x="100" y="240">1</text><text x="100" y="260">0</text></g>
    <g opacity="0.4"><text x="160" y="40">F</text><text x="160" y="60">A</text><text x="160" y="80">C</text><text x="160" y="100">2</text><text x="160" y="120">0</text><text x="160" y="140">1</text><text x="160" y="160">B</text></g>
    <g opacity="0.85"><text x="220" y="80">0</text><text x="220" y="100">x</text><text x="220" y="120">7</text><text x="220" y="140">F</text><text x="220" y="160">F</text><text x="220" y="180">A</text><text x="220" y="200">A</text><text x="220" y="220">5</text><text x="220" y="240">C</text><text x="220" y="260">3</text><text x="220" y="280">2</text></g>
    <g opacity="0.5"><text x="280" y="140">1</text><text x="280" y="160">0</text><text x="280" y="180">1</text><text x="280" y="200">0</text><text x="280" y="220">1</text></g>
    <g opacity="0.7"><text x="340" y="60">B</text><text x="340" y="80">A</text><text x="340" y="100">A</text><text x="340" y="120">D</text><text x="340" y="140">F</text><text x="340" y="160">0</text><text x="340" y="180">0</text><text x="340" y="200">D</text></g>
    <g opacity="0.45"><text x="400" y="40">3</text><text x="400" y="60">3</text><text x="400" y="80">7</text><text x="400" y="100">7</text></g>
    <g opacity="0.85"><text x="460" y="120">D</text><text x="460" y="140">E</text><text x="460" y="160">A</text><text x="460" y="180">D</text><text x="460" y="200">B</text><text x="460" y="220">E</text><text x="460" y="240">E</text><text x="460" y="260">F</text></g>
    <g opacity="0.55"><text x="520" y="80">C</text><text x="520" y="100">A</text><text x="520" y="120">F</text><text x="520" y="140">E</text><text x="520" y="160">B</text><text x="520" y="180">A</text><text x="520" y="200">B</text><text x="520" y="220">E</text></g>
    <g opacity="0.7"><text x="580" y="180">F</text><text x="580" y="200">E</text><text x="580" y="220">E</text><text x="580" y="240">D</text><text x="580" y="260">B</text><text x="580" y="280">E</text><text x="580" y="300">E</text><text x="580" y="320">F</text></g>
    <g opacity="0.4"><text x="640" y="100">0</text><text x="640" y="120">1</text><text x="640" y="140">1</text><text x="640" y="160">0</text></g>
    <g opacity="0.85"><text x="700" y="60">A</text><text x="700" y="80">B</text><text x="700" y="100">C</text><text x="700" y="120">D</text><text x="700" y="140">E</text><text x="700" y="160">F</text><text x="700" y="180">0</text><text x="700" y="200">1</text><text x="700" y="220">2</text></g>
    <g opacity="0.5"><text x="760" y="240">7</text><text x="760" y="260">3</text><text x="760" y="280">3</text><text x="760" y="300">1</text></g>
  </g>

  <!-- Bright leading characters -->
  <g font-family="JetBrains Mono, Menlo, monospace" font-size="16" fill="#e6ffd6">
    <text x="40" y="240" filter="brightness(2)">7</text>
    <text x="220" y="300">2</text>
    <text x="460" y="280" >F</text>
    <text x="700" y="240">3</text>
  </g>

  <!-- Foreground gradient overlay -->
  <rect width="800" height="450" fill="url(#mx-fade)" opacity="0.05"/>

  <!-- Border accent -->
  <rect x="2" y="2" width="796" height="446" fill="none" stroke="#c5ff00" stroke-width="1" opacity="0.25"/>
</svg>
